<!--
Change note — 2026-08-01 21:40 CEST:
Wordmark text updated from Gentle Days to Soft Pace; the Ribbon in Bloom
geometry, palette, and brand line are untouched. Needs a design pass to
re-balance spacing for the shorter name.

Created — 2026-07-28 16:21 CEST:
Built the production horizontal brand lockup from the same Ribbon in Bloom
geometry and paired it with the approved “Small steps. Still you.” line.
-->
<svg xmlns="http://www.w3.org/2000/svg" width="1800" height="600" viewBox="0 0 1800 600">
  <rect width="1800" height="600" fill="#FAF7F1"/>
  <g transform="translate(45 35) scale(.52)">
    <circle cx="512" cy="374" r="214" fill="#F2BE78"/>
    <path d="M119 519C255 529 396 625 452 859C278 816 144 705 119 519Z" fill="#477A66"/>
    <path d="M905 519C769 529 628 625 572 859C746 816 880 705 905 519Z" fill="#477A66"/>
    <path d="M512 266C423 266 381 337 392 411C402 481 458 537 472 560L407 704L477 666L512 589L547 666L617 704L552 560C566 537 622 481 632 411C643 337 601 266 512 266ZM512 340C548 340 565 367 559 402C553 443 527 478 512 500C497 478 471 443 465 402C459 367 476 340 512 340Z" fill="#DD758B" fill-rule="evenodd"/>
  </g>
  <text x="635" y="296" fill="#244C3E" font-family="Georgia, serif" font-size="164" letter-spacing="-4">Soft Pace</text>
  <text x="648" y="395" fill="#59656F" font-family="-apple-system, BlinkMacSystemFont, Arial, sans-serif" font-size="54" letter-spacing="1">Small steps. Still you.</text>
</svg>
